<?xml version="1.0" encoding="utf-8"?>
<!-- Generator: Adobe Illustrator 16.0.0, SVG Export Plug-In . SVG Version: 6.00 Build 0)  -->
<!DOCTYPE svg PUBLIC "-//W3C//DTD SVG 1.1//EN" "http://www.w3.org/Graphics/SVG/1.1/DTD/svg11.dtd">
<svg version="1.1" id="Layer_1" xmlns="http://www.w3.org/2000/svg" xmlns:xlink="http://www.w3.org/1999/xlink" x="0px" y="0px"
	 width="2183.994px" height="216px" viewBox="0 0 2183.994 216" enable-background="new 0 0 2183.994 216" xml:space="preserve">
<g>
	<path fill-rule="evenodd" clip-rule="evenodd" fill="#88AD86" d="M0,64c33.163,0.007,686.32,0.021,719.482,0.021
		c323.815,0.001,647.631,0.038,971.447-0.049c42.758-0.012,85.516-0.732,128.274-1c50.745-0.318,101.49-0.512,152.235-0.737
		c11.993-0.054,23.992-0.221,35.979,0.036c10.729,0.23,21.444,1.386,32.168,1.4c20.839,0.028,41.679-0.643,62.518-0.657
		c11.024-0.007,22.054,0.656,33.068,1.251c2.334,0.126,4.612,1.271,6.917,1.946c-0.019,0.609-0.037,1.218-0.055,1.827
		c-11.92,0.505-23.84,1.01-35.759,1.515c-0.022,0.585-0.044,1.171-0.066,1.756c1.932,0.251,3.898,0.351,5.784,0.794
		c1.976,0.465,3.873,1.261,5.575,2.713c-13.728,0-27.455,0-41.184,0c-0.072,0.353-0.146,0.707-0.218,1.06
		c0.925,0.711,1.851,1.423,3.054,2.348c-0.717,0.29-1.118,0.594-1.521,0.595c-21.151,0.061-42.308-0.148-63.454,0.213
		c-15.733,0.269-31.458,1.23-47.177,2.045c-1.057,0.055-2.041,1.479-3.059,2.268c0.915,0.718,1.807,2.025,2.75,2.063
		c12.002,0.494,24.017,0.673,36.017,1.207c9.601,0.427,19.177,1.479,28.778,1.785c7.9,0.252,15.822-0.197,23.734-0.298
		c1.421-0.018,2.844,0.148,2.959,0.155c-17.033,2.065-35.29,4.279-53.547,6.492c0.022,0.492,0.045,0.984,0.067,1.476
		c11.667,0,23.335,0,35.002,0c0.138,0.323,0.275,0.646,0.413,0.969c-1.059,0.579-2.08,1.572-3.18,1.667
		c-6.144,0.534-11.895,1.044-17.218,5.421c-2.628,2.161-7.862,1.308-11.932,1.516c-4.655,0.237-9.329,0.099-13.993,0.204
		c-1.502,0.034-2.998,0.321-4.497,0.493c0.015,0.616,0.028,1.233,0.042,1.85c4.656,0,9.312,0,13.968,0
		c0.006,0.542,0.013,1.084,0.019,1.625c-7.524,3.88-16.914-1.108-24.091,5.001c5.77,0,11.538,0,18.737,0
		c-5.227,0.938-9.006,1.617-13.672,2.455c1.611,1.953,2.321,2.813,4.078,4.941c-14.643,1.789-28.43,3.474-42.217,5.157
		c-0.004,0.559-0.008,1.116-0.012,1.675c5.256,0,10.511,0,15.767,0c0.022,0.511,0.045,1.021,0.067,1.532
		c-6.982,0.056-13.03,4.822-20.438,3.484c-1.404-0.253-3.348,2.477-5.54,4.228c1.735,0.175,3.204,0.355,4.679,0.458
		c0.994,0.068,2.24-0.36,2.955,0.093c7.226,4.58,15.361,1.805,22.986,3.009c0.43,0.067,0.829,0.325,1.214,1.774
		c-18.226,0-36.451,0-54.677,0c-0.059,0.617-0.117,1.234-0.176,1.852c7.453,1.546,14.906,3.091,23.378,4.848
		c-3.149,0.309-5.537,0.551-7.927,0.775c-2.634,0.249-5.267,0.653-7.903,0.69c-7.082,0.097-21.249,0.05-21.249,0.05L0,151.92
		C0,151.92,0,92,0,64z M2021.422,75.753c-53.496-0.114-107.009-1.765-160.466,1.663
		C1914.435,75.958,1967.972,79.841,2021.422,75.753z"/>
</g>
</svg>
