<?xml version="1.0" encoding="utf-8"?>
<!-- Generator: Adobe Illustrator 16.0.0, SVG Export Plug-In . SVG Version: 6.00 Build 0)  -->
<!DOCTYPE svg PUBLIC "-//W3C//DTD SVG 1.1//EN" "http://www.w3.org/Graphics/SVG/1.1/DTD/svg11.dtd">
<svg version="1.1" id="Layer_1" xmlns="http://www.w3.org/2000/svg" xmlns:xlink="http://www.w3.org/1999/xlink" x="0px" y="0px"
	 width="756px" height="253px" viewBox="0 0 756 253" enable-background="new 0 0 756 253" xml:space="preserve">
<g>
	<linearGradient id="SVGID_1_" gradientUnits="userSpaceOnUse" x1="377.3062" y1="12.7656" x2="377.3062" y2="155.5557">
		<stop  offset="0.0372" style="stop-color:#C96A74"/>
		<stop  offset="1" style="stop-color:#5B0A0A"/>
	</linearGradient>
	<path fill="url(#SVGID_1_)" stroke="#000000" stroke-width="5" stroke-miterlimit="10" d="M104.341,153.456v-50.921H55.169v50.921
		H12.647V15.215h42.522v51.621h49.171V15.215h42.522v138.24H104.341z M309.943,83.11c0,48.646-23.273,72.445-74.195,72.445
		c-51.096,0-74.195-24.673-74.195-71.92c0-44.097,22.749-70.87,74.195-70.87C288.245,12.766,309.943,36.914,309.943,83.11z
		 M266.896,84.16c0-27.473-7.524-38.672-31.148-38.672c-22.748,0-30.798,10.849-30.798,38.672c0,29.223,10.674,39.022,30.973,39.022
		C255.522,123.183,266.896,114.958,266.896,84.16z M390.08,155.38c-38.147,0-67.195-14.349-67.195-50.396c0-4.375,0-89.769,0-89.769
		h42.872c0,0,0,85.394,0,88.019c0,12.074,9.274,19.249,25.198,19.249c15.049,0,24.848-7.7,24.848-19.074c0-2.625,0-88.194,0-88.194
		H458.5c0,0,0,88.719,0,92.568C458.5,139.981,429.802,155.38,390.08,155.38z M540.737,155.556c-43.747,0-62.121-13.299-67.72-32.023
		c-1.4-4.725-1.925-11.899-1.925-14.349h44.097c0,2.1,0.875,6.125,2.1,8.049c2.8,5.25,10.499,7.7,25.023,7.7
		c16.623,0,22.223-3.675,22.223-10.849c0-8.575-7.524-10.674-24.848-13.649c-5.774-1.05-16.974-2.8-20.299-3.325
		c-30.448-5.075-47.947-15.924-47.947-42.522c0-23.973,23.798-41.297,66.67-41.297c38.848,0,56.696,12.424,64.046,31.147
		c2.1,5.25,3.149,11.199,3.149,14.524h-44.097c0-1.75-0.525-4.199-1.75-6.649c-2.45-5.424-8.749-8.399-22.049-8.399
		c-17.323,0-21.698,3.325-21.698,9.449c0,8.225,10.675,10.85,31.498,14.349c5.425,0.875,12.949,2.275,18.724,3.325
		c27.823,4.9,42.347,15.924,42.347,41.297C608.282,139.282,585.185,155.556,540.737,155.556z M622.975,153.456V15.215h118.116
		v32.547h-76.294v20.124h73.494v32.897h-73.494v20.474h77.169v32.198H622.975z"/>
	<g>
		<path fill="#E7D51B" stroke="#000000" stroke-width="5" stroke-miterlimit="10" d="M59.173,141.771h-1.237v-2.599h25.86v2.599
			h-0.99c-3.465,0-6.187,1.732-8.167,4.083c-3.217,3.959-5.32,7.671-7.3,11.136L49.646,186.19l30.438,49.37h9.28v2.599H64.37
			l-25.118-38.976l-0.124,36.377h9.157v2.599H12.896v-2.599h9.156v-93.79h-9.156v-2.599h35.388v2.599h-9.157h0.124l-0.124,53.453
			l0.99-1.114c14.229-16.085,28.211-42.936,25.984-48.751C64.988,142.513,62.143,141.771,59.173,141.771z"/>
		<path fill="#E7D51B" stroke="#000000" stroke-width="5" stroke-miterlimit="10" d="M204.072,214.278h-2.598v-5.939
			c0-3.217-0.248-6.805-3.341-7.795c-3.093-0.99-5.815-0.99-9.404-0.99h-6.311v36.006h7.795c7.053,0,12.621,0.99,18.065-3.712
			c2.475-2.104,3.712-5.691,3.836-9.651v-5.939h2.598v24.623h-2.598v-2.722h-56.051v-2.599h9.156v-93.79h0.248h-9.404v-2.599h56.299
			v-2.475h2.598v30.81h-2.598v-9.898c-0.124-4.331-1.361-7.3-4.083-10.518c-4.578-5.444-10.888-5.32-18.065-5.32h-7.795v55.309
			h6.558c3.588,0,5.444,0.495,9.404-1.114c3.093-1.237,3.341-4.454,3.341-7.671v-5.939h2.351V214.278z"/>
		<path fill="#E7D51B" stroke="#000000" stroke-width="5" stroke-miterlimit="10" d="M328.924,214.278h-2.599v-5.939
			c0-3.217-0.248-6.805-3.341-7.795c-3.093-0.99-5.815-0.99-9.404-0.99h-6.311v36.006h7.795c7.053,0,12.621,0.99,18.065-3.712
			c2.475-2.104,3.712-5.691,3.836-9.651v-5.939h2.598v24.623h-2.598v-2.722h-56.051v-2.599h9.156v-93.79h0.248h-9.404v-2.599h56.299
			v-2.475h2.598v30.81h-2.598v-9.898c-0.124-4.331-1.361-7.3-4.083-10.518c-4.578-5.444-10.888-5.32-18.065-5.32h-7.795v55.309
			h6.558c3.588,0,5.444,0.495,9.404-1.114c3.093-1.237,3.341-4.454,3.341-7.671v-5.939h2.351V214.278z"/>
		<path fill="#E7D51B" stroke="#000000" stroke-width="5" stroke-miterlimit="10" d="M404.901,238.159v-2.599h9.156v-93.79h0.248
			h-9.404v-2.599h34.15c16.828,0,32.418,11.631,33.161,28.458c0.742,17.199-13.363,32.418-30.562,32.418h-10.518v35.264h9.156v2.846
			H404.901z M433.607,197.45c8.538,0,20.045-3.464,19.55-30.067c-0.124-9.033-1.979-25.613-18.807-25.613h-3.093v55.68H433.607z"/>
		<path fill="#E7D51B" stroke="#000000" stroke-width="5" stroke-miterlimit="10" d="M586.672,214.278h-2.6v-5.939
			c0-3.217-0.246-6.805-3.34-7.795c-3.094-0.99-5.816-0.99-9.404-0.99h-6.311v36.006h7.795c7.053,0,12.621,0.99,18.066-3.712
			c2.475-2.104,3.711-5.691,3.834-9.651v-5.939h2.6v24.623h-2.6v-2.722h-56.051v-2.599h9.156v-93.79h0.248h-9.404v-2.599h56.299
			v-2.475h2.6v30.81h-2.6v-9.898c-0.123-4.331-1.361-7.3-4.082-10.518c-4.578-5.444-10.889-5.32-18.066-5.32h-7.795v55.309h6.559
			c3.588,0,5.443,0.495,9.402-1.114c3.094-1.237,3.342-4.454,3.342-7.671v-5.939h2.352V214.278z"/>
		<path fill="#E7D51B" stroke="#000000" stroke-width="5" stroke-miterlimit="10" d="M688.881,200.049v35.264h9.156v2.846h-35.389
			v-2.599h9.156v-93.79h0.248h-9.404v-2.599h34.15c16.828,0,32.295,11.631,33.162,28.458c0.617,11.136-1.98,22.148-12.375,26.232
			l-5.939,2.351l2.723,0.619c4.455,0.99,7.053,1.98,10.641,4.578c10.023,7.3,1.609,27.964,8.291,31.057
			c1.238,0.495,3.836-1.361,5.197-3.093l2.227-2.722l1.98,1.732l-2.352,2.846c-4.455,5.444-11.012,8.043-16.951,6.187
			c-15.344-4.95-4.949-27.222-13.611-35.635c-2.475-2.351-5.691-1.732-9.279-1.732H688.881z M691.355,197.45
			c8.537,0,20.045-3.464,19.549-30.067c-0.123-9.033-1.979-25.613-18.807-25.613h-3.094v55.68H691.355z"/>
	</g>
</g>
<g>
	<linearGradient id="SVGID_2_" gradientUnits="userSpaceOnUse" x1="377.3062" y1="12.7656" x2="377.3062" y2="155.5557">
		<stop  offset="0.0372" style="stop-color:#C96A74"/>
		<stop  offset="1" style="stop-color:#5B0A0A"/>
	</linearGradient>
	<path fill="url(#SVGID_2_)" d="M104.341,153.456v-50.921H55.169v50.921H12.647V15.215h42.522v51.621h49.171V15.215h42.522v138.24
		H104.341z M309.943,83.11c0,48.646-23.273,72.445-74.195,72.445c-51.096,0-74.195-24.673-74.195-71.92
		c0-44.097,22.749-70.87,74.195-70.87C288.245,12.766,309.943,36.914,309.943,83.11z M266.896,84.16
		c0-27.473-7.524-38.672-31.148-38.672c-22.748,0-30.798,10.849-30.798,38.672c0,29.223,10.674,39.022,30.973,39.022
		C255.522,123.183,266.896,114.958,266.896,84.16z M390.08,155.38c-38.147,0-67.195-14.349-67.195-50.396c0-4.375,0-89.769,0-89.769
		h42.872c0,0,0,85.394,0,88.019c0,12.074,9.274,19.249,25.198,19.249c15.049,0,24.848-7.7,24.848-19.074c0-2.625,0-88.194,0-88.194
		H458.5c0,0,0,88.719,0,92.568C458.5,139.981,429.802,155.38,390.08,155.38z M540.737,155.556c-43.747,0-62.121-13.299-67.72-32.023
		c-1.4-4.725-1.925-11.899-1.925-14.349h44.097c0,2.1,0.875,6.125,2.1,8.049c2.8,5.25,10.499,7.7,25.023,7.7
		c16.623,0,22.223-3.675,22.223-10.849c0-8.575-7.524-10.674-24.848-13.649c-5.774-1.05-16.974-2.8-20.299-3.325
		c-30.448-5.075-47.947-15.924-47.947-42.522c0-23.973,23.798-41.297,66.67-41.297c38.848,0,56.696,12.424,64.046,31.147
		c2.1,5.25,3.149,11.199,3.149,14.524h-44.097c0-1.75-0.525-4.199-1.75-6.649c-2.45-5.424-8.749-8.399-22.049-8.399
		c-17.323,0-21.698,3.325-21.698,9.449c0,8.225,10.675,10.85,31.498,14.349c5.425,0.875,12.949,2.275,18.724,3.325
		c27.823,4.9,42.347,15.924,42.347,41.297C608.282,139.282,585.185,155.556,540.737,155.556z M622.975,153.456V15.215h118.116
		v32.547h-76.294v20.124h73.494v32.897h-73.494v20.474h77.169v32.198H622.975z"/>
	<g>
		<path fill="#E7D51B" d="M59.173,141.771h-1.237v-2.599h25.86v2.599h-0.99c-3.465,0-6.187,1.732-8.167,4.083
			c-3.217,3.959-5.32,7.671-7.3,11.136L49.646,186.19l30.438,49.37h9.28v2.599H64.37l-25.118-38.976l-0.124,36.377h9.157v2.599
			H12.896v-2.599h9.156v-93.79h-9.156v-2.599h35.388v2.599h-9.157h0.124l-0.124,53.453l0.99-1.114
			c14.229-16.085,28.211-42.936,25.984-48.751C64.988,142.513,62.143,141.771,59.173,141.771z"/>
		<path fill="#E7D51B" d="M204.072,214.278h-2.598v-5.939c0-3.217-0.248-6.805-3.341-7.795c-3.093-0.99-5.815-0.99-9.404-0.99
			h-6.311v36.006h7.795c7.053,0,12.621,0.99,18.065-3.712c2.475-2.104,3.712-5.691,3.836-9.651v-5.939h2.598v24.623h-2.598v-2.722
			h-56.051v-2.599h9.156v-93.79h0.248h-9.404v-2.599h56.299v-2.475h2.598v30.81h-2.598v-9.898c-0.124-4.331-1.361-7.3-4.083-10.518
			c-4.578-5.444-10.888-5.32-18.065-5.32h-7.795v55.309h6.558c3.588,0,5.444,0.495,9.404-1.114c3.093-1.237,3.341-4.454,3.341-7.671
			v-5.939h2.351V214.278z"/>
		<path fill="#E7D51B" d="M328.924,214.278h-2.599v-5.939c0-3.217-0.248-6.805-3.341-7.795c-3.093-0.99-5.815-0.99-9.404-0.99
			h-6.311v36.006h7.795c7.053,0,12.621,0.99,18.065-3.712c2.475-2.104,3.712-5.691,3.836-9.651v-5.939h2.598v24.623h-2.598v-2.722
			h-56.051v-2.599h9.156v-93.79h0.248h-9.404v-2.599h56.299v-2.475h2.598v30.81h-2.598v-9.898c-0.124-4.331-1.361-7.3-4.083-10.518
			c-4.578-5.444-10.888-5.32-18.065-5.32h-7.795v55.309h6.558c3.588,0,5.444,0.495,9.404-1.114c3.093-1.237,3.341-4.454,3.341-7.671
			v-5.939h2.351V214.278z"/>
		<path fill="#E7D51B" d="M404.901,238.159v-2.599h9.156v-93.79h0.248h-9.404v-2.599h34.15c16.828,0,32.418,11.631,33.161,28.458
			c0.742,17.199-13.363,32.418-30.562,32.418h-10.518v35.264h9.156v2.846H404.901z M433.607,197.45
			c8.538,0,20.045-3.464,19.55-30.067c-0.124-9.033-1.979-25.613-18.807-25.613h-3.093v55.68H433.607z"/>
		<path fill="#E7D51B" d="M586.672,214.278h-2.6v-5.939c0-3.217-0.246-6.805-3.34-7.795c-3.094-0.99-5.816-0.99-9.404-0.99h-6.311
			v36.006h7.795c7.053,0,12.621,0.99,18.066-3.712c2.475-2.104,3.711-5.691,3.834-9.651v-5.939h2.6v24.623h-2.6v-2.722h-56.051
			v-2.599h9.156v-93.79h0.248h-9.404v-2.599h56.299v-2.475h2.6v30.81h-2.6v-9.898c-0.123-4.331-1.361-7.3-4.082-10.518
			c-4.578-5.444-10.889-5.32-18.066-5.32h-7.795v55.309h6.559c3.588,0,5.443,0.495,9.402-1.114c3.094-1.237,3.342-4.454,3.342-7.671
			v-5.939h2.352V214.278z"/>
		<path fill="#E7D51B" d="M688.881,200.049v35.264h9.156v2.846h-35.389v-2.599h9.156v-93.79h0.248h-9.404v-2.599h34.15
			c16.828,0,32.295,11.631,33.162,28.458c0.617,11.136-1.98,22.148-12.375,26.232l-5.939,2.351l2.723,0.619
			c4.455,0.99,7.053,1.98,10.641,4.578c10.023,7.3,1.609,27.964,8.291,31.057c1.238,0.495,3.836-1.361,5.197-3.093l2.227-2.722
			l1.98,1.732l-2.352,2.846c-4.455,5.444-11.012,8.043-16.951,6.187c-15.344-4.95-4.949-27.222-13.611-35.635
			c-2.475-2.351-5.691-1.732-9.279-1.732H688.881z M691.355,197.45c8.537,0,20.045-3.464,19.549-30.067
			c-0.123-9.033-1.979-25.613-18.807-25.613h-3.094v55.68H691.355z"/>
	</g>
</g>
</svg>
